<svg xmlns:xlink="http://www.w3.org/1999/xlink" width="835" height="574" xmlns="http://www.w3.org/2000/svg"><defs><linearGradient x1="113.741%" y1="45.465%" x2="26.096%" y2="51.683%" id="a"><stop stop-color="#7549BA" stop-opacity=".29" offset="46%"/><stop stop-color="#7549BA" stop-opacity=".26" offset="59%"/><stop stop-color="#7549BA" stop-opacity=".17" offset="78%"/><stop stop-color="#7549BA" stop-opacity=".01" offset="98%"/><stop stop-color="#7549BA" stop-opacity="0" offset="100%"/></linearGradient><linearGradient x1="13.388%" y1="-69.128%" x2="154.182%" y2="239.91%" id="b"><stop stop-color="#7549BA" stop-opacity=".29" offset="43%"/><stop stop-color="#7549BA" stop-opacity="0" offset="92%"/></linearGradient><linearGradient x1="106.65%" y1="46.748%" x2="11.536%" y2="60.268%" id="c"><stop stop-color="#7549BA" stop-opacity=".27" offset="0%"/><stop stop-color="#7549BA" stop-opacity=".05" offset="59%"/><stop stop-color="#7549BA" stop-opacity="0" offset="73%"/></linearGradient><linearGradient x1="20.63%" y1="111.05%" x2="184.179%" y2="-53.148%" id="d"><stop stop-color="#EF7779" offset="6%"/><stop stop-color="#EF6465" offset="23%"/><stop stop-color="#EF5253" offset="36%"/></linearGradient><linearGradient x1=".036%" y1="50.024%" x2="99.964%" y2="50.024%" id="e"><stop stop-color="#97E0F6" offset="0%"/><stop stop-color="#93CDEE" offset="4%"/><stop stop-color="#8BAAE0" offset="12%"/><stop stop-color="#848CD4" offset="20%"/><stop stop-color="#7E73CB" offset="30%"/><stop stop-color="#7A60C3" offset="40%"/><stop stop-color="#7753BE" offset="53%"/><stop stop-color="#764BBB" offset="69%"/><stop stop-color="#7549BA" offset="100%"/></linearGradient><linearGradient x1="16.403%" y1="22.698%" x2="121.966%" y2="108.322%" id="f"><stop stop-color="#97E0F6" offset="0%"/><stop stop-color="#93CDEE" offset="4%"/><stop stop-color="#8BAAE0" offset="12%"/><stop stop-color="#848CD4" offset="20%"/><stop stop-color="#7E73CB" offset="30%"/><stop stop-color="#7A60C3" offset="40%"/><stop stop-color="#7753BE" offset="53%"/><stop stop-color="#764BBB" offset="69%"/><stop stop-color="#7549BA" offset="100%"/></linearGradient><linearGradient x1="90.479%" y1="77.417%" x2="5.306%" y2="20.676%" id="g"><stop stop-color="#7549BA" stop-opacity=".29" offset="46%"/><stop stop-color="#7549BA" stop-opacity=".26" offset="59%"/><stop stop-color="#7549BA" stop-opacity=".17" offset="78%"/><stop stop-color="#7549BA" stop-opacity=".01" offset="98%"/><stop stop-color="#7549BA" stop-opacity="0" offset="100%"/></linearGradient><linearGradient x1="-23.52%" y1="-150.287%" x2="117.274%" y2="158.751%" id="h"><stop stop-color="#7549BA" stop-opacity=".29" offset="43%"/><stop stop-color="#7549BA" stop-opacity="0" offset="92%"/></linearGradient><linearGradient x1="-.028%" y1="50%" x2="100.019%" y2="50%" id="i"><stop stop-color="#97E0F6" offset="0%"/><stop stop-color="#93CDEE" offset="4%"/><stop stop-color="#8BAAE0" offset="12%"/><stop stop-color="#848CD4" offset="20%"/><stop stop-color="#7E73CB" offset="30%"/><stop stop-color="#7A60C3" offset="40%"/><stop stop-color="#7753BE" offset="53%"/><stop stop-color="#764BBB" offset="69%"/><stop stop-color="#7549BA" offset="100%"/></linearGradient><linearGradient x1="-5.91%" y1="9.759%" x2="305.291%" y2="228.924%" id="j"><stop stop-color="#97E0F6" offset="0%"/><stop stop-color="#93CDEE" offset="4%"/><stop stop-color="#8BAAE0" offset="12%"/><stop stop-color="#848CD4" offset="20%"/><stop stop-color="#7E73CB" offset="30%"/><stop stop-color="#7A60C3" offset="40%"/><stop stop-color="#7753BE" offset="53%"/><stop stop-color="#764BBB" offset="69%"/><stop stop-color="#7549BA" offset="100%"/></linearGradient><linearGradient x1="-.019%" y1="50%" x2="100.028%" y2="50%" id="k"><stop stop-color="#97E0F6" offset="0%"/><stop stop-color="#93CDEE" offset="4%"/><stop stop-color="#8BAAE0" offset="12%"/><stop stop-color="#848CD4" offset="20%"/><stop stop-color="#7E73CB" offset="30%"/><stop stop-color="#7A60C3" offset="40%"/><stop stop-color="#7753BE" offset="53%"/><stop stop-color="#764BBB" offset="69%"/><stop stop-color="#7549BA" offset="100%"/></linearGradient><linearGradient x1="-20.903%" y1="11.616%" x2="372.444%" y2="220.917%" id="l"><stop stop-color="#97E0F6" offset="0%"/><stop stop-color="#93CDEE" offset="4%"/><stop stop-color="#8BAAE0" offset="12%"/><stop stop-color="#848CD4" offset="20%"/><stop stop-color="#7E73CB" offset="30%"/><stop stop-color="#7A60C3" offset="40%"/><stop stop-color="#7753BE" offset="53%"/><stop stop-color="#764BBB" offset="69%"/><stop stop-color="#7549BA" offset="100%"/></linearGradient><linearGradient x1="-.047%" y1="50%" y2="50%" id="m"><stop stop-color="#97E0F6" offset="0%"/><stop stop-color="#93CDEE" offset="4%"/><stop stop-color="#8BAAE0" offset="12%"/><stop stop-color="#848CD4" offset="20%"/><stop stop-color="#7E73CB" offset="30%"/><stop stop-color="#7A60C3" offset="40%"/><stop stop-color="#7753BE" offset="53%"/><stop stop-color="#764BBB" offset="69%"/><stop stop-color="#7549BA" offset="100%"/></linearGradient><linearGradient x1="-10.4%" y1="22.122%" x2="179.164%" y2="109.71%" id="n"><stop stop-color="#97E0F6" offset="0%"/><stop stop-color="#93CDEE" offset="4%"/><stop stop-color="#8BAAE0" offset="12%"/><stop stop-color="#848CD4" offset="20%"/><stop stop-color="#7E73CB" offset="30%"/><stop stop-color="#7A60C3" offset="40%"/><stop stop-color="#7753BE" offset="53%"/><stop stop-color="#764BBB" offset="69%"/><stop stop-color="#7549BA" offset="100%"/></linearGradient><linearGradient x1="-60.041%" y1="13.937%" x2="537.827%" y2="211.827%" id="o"><stop stop-color="#97E0F6" offset="0%"/><stop stop-color="#93CDEE" offset="4%"/><stop stop-color="#8BAAE0" offset="12%"/><stop stop-color="#848CD4" offset="20%"/><stop stop-color="#7E73CB" offset="30%"/><stop stop-color="#7A60C3" offset="40%"/><stop stop-color="#7753BE" offset="53%"/><stop stop-color="#764BBB" offset="69%"/><stop stop-color="#7549BA" offset="100%"/></linearGradient><linearGradient x1=".058%" y1="50.037%" x2="100.022%" y2="50.037%" id="p"><stop stop-color="#7549BA" stop-opacity=".29" offset="46%"/><stop stop-color="#7549BA" stop-opacity=".26" offset="59%"/><stop stop-color="#7549BA" stop-opacity=".17" offset="78%"/><stop stop-color="#7549BA" stop-opacity=".01" offset="98%"/><stop stop-color="#7549BA" stop-opacity="0" offset="100%"/></linearGradient><linearGradient x1="-.002%" y1="50.008%" x2="99.98%" y2="50.008%" id="q"><stop stop-color="#7549BA" stop-opacity=".29" offset="46%"/><stop stop-color="#7549BA" stop-opacity=".26" offset="59%"/><stop stop-color="#7549BA" stop-opacity=".17" offset="78%"/><stop stop-color="#7549BA" stop-opacity=".01" offset="98%"/><stop stop-color="#7549BA" stop-opacity="0" offset="100%"/></linearGradient><linearGradient x1="-.008%" y1="49.853%" x2="99.97%" y2="49.853%" id="r"><stop stop-color="#7549BA" stop-opacity=".29" offset="46%"/><stop stop-color="#7549BA" stop-opacity=".26" offset="59%"/><stop stop-color="#7549BA" stop-opacity=".17" offset="78%"/><stop stop-color="#7549BA" stop-opacity=".01" offset="98%"/><stop stop-color="#7549BA" stop-opacity="0" offset="100%"/></linearGradient><linearGradient x1="51.109%" y1="2.387%" x2="47.928%" y2="136.103%" id="s"><stop stop-color="#97E0F6" offset="0%"/><stop stop-color="#93CDEE" offset="4%"/><stop stop-color="#8BAAE0" offset="12%"/><stop stop-color="#848CD4" offset="20%"/><stop stop-color="#7E73CB" offset="30%"/><stop stop-color="#7A60C3" offset="40%"/><stop stop-color="#7753BE" offset="53%"/><stop stop-color="#764BBB" offset="69%"/><stop stop-color="#7549BA" offset="100%"/></linearGradient><linearGradient x1="30.463%" y1="17.613%" x2="96.758%" y2="67.58%" id="t"><stop stop-color="#97E0F6" offset="0%"/><stop stop-color="#93CDEE" offset="4%"/><stop stop-color="#8BAAE0" offset="12%"/><stop stop-color="#848CD4" offset="20%"/><stop stop-color="#7E73CB" offset="30%"/><stop stop-color="#7A60C3" offset="40%"/><stop stop-color="#7753BE" offset="53%"/><stop stop-color="#764BBB" offset="69%"/><stop stop-color="#7549BA" offset="100%"/></linearGradient><linearGradient x1="79.568%" y1="2.878%" x2="31.024%" y2="114.397%" id="u"><stop stop-color="#EF7779" offset="6%"/><stop stop-color="#EF6465" offset="23%"/><stop stop-color="#EF5253" offset="36%"/></linearGradient><linearGradient x1=".206%" y1="48.115%" x2="99.774%" y2="51.898%" id="v"><stop stop-color="#7549BA" stop-opacity=".29" offset="46%"/><stop stop-color="#7549BA" stop-opacity=".26" offset="59%"/><stop stop-color="#7549BA" stop-opacity=".17" offset="78%"/><stop stop-color="#7549BA" stop-opacity=".01" offset="98%"/><stop stop-color="#7549BA" stop-opacity="0" offset="100%"/></linearGradient><linearGradient x1=".206%" y1="48.154%" x2="99.775%" y2="51.938%" id="w"><stop stop-color="#7549BA" stop-opacity=".29" offset="46%"/><stop stop-color="#7549BA" stop-opacity=".26" offset="59%"/><stop stop-color="#7549BA" stop-opacity=".17" offset="78%"/><stop stop-color="#7549BA" stop-opacity=".01" offset="98%"/><stop stop-color="#7549BA" stop-opacity="0" offset="100%"/></linearGradient><linearGradient x1="-.014%" y1="49.991%" x2="100.021%" y2="49.991%" id="x"><stop stop-color="#7549BA" stop-opacity=".29" offset="46%"/><stop stop-color="#7549BA" stop-opacity=".26" offset="59%"/><stop stop-color="#7549BA" stop-opacity=".17" offset="78%"/><stop stop-color="#7549BA" stop-opacity=".01" offset="98%"/><stop stop-color="#7549BA" stop-opacity="0" offset="100%"/></linearGradient><linearGradient x1="15.577%" y1="85.105%" x2="63.523%" y2="43.366%" id="y"><stop stop-color="#97E0F6" offset="0%"/><stop stop-color="#93CDEE" offset="4%"/><stop stop-color="#8BAAE0" offset="12%"/><stop stop-color="#848CD4" offset="20%"/><stop stop-color="#7E73CB" offset="30%"/><stop stop-color="#7A60C3" offset="40%"/><stop stop-color="#7753BE" offset="53%"/><stop stop-color="#764BBB" offset="69%"/><stop stop-color="#7549BA" offset="100%"/></linearGradient><linearGradient x1="-3.239%" y1="11.689%" x2="165.682%" y2="131.832%" id="z"><stop stop-color="#97E0F6" offset="0%"/><stop stop-color="#93CDEE" offset="4%"/><stop stop-color="#8BAAE0" offset="12%"/><stop stop-color="#848CD4" offset="20%"/><stop stop-color="#7E73CB" offset="30%"/><stop stop-color="#7A60C3" offset="40%"/><stop stop-color="#7753BE" offset="53%"/><stop stop-color="#764BBB" offset="69%"/><stop stop-color="#7549BA" offset="100%"/></linearGradient><linearGradient x1="-2.958%" y1="10.638%" x2="164.625%" y2="134.99%" id="A"><stop stop-color="#97E0F6" offset="0%"/><stop stop-color="#93CDEE" offset="4%"/><stop stop-color="#8BAAE0" offset="12%"/><stop stop-color="#848CD4" offset="20%"/><stop stop-color="#7E73CB" offset="30%"/><stop stop-color="#7A60C3" offset="40%"/><stop stop-color="#7753BE" offset="53%"/><stop stop-color="#764BBB" offset="69%"/><stop stop-color="#7549BA" offset="100%"/></linearGradient><linearGradient x1="-3.038%" y1="10.616%" x2="164.601%" y2="134.782%" id="B"><stop stop-color="#97E0F6" offset="0%"/><stop stop-color="#93CDEE" offset="4%"/><stop stop-color="#8BAAE0" offset="12%"/><stop stop-color="#848CD4" offset="20%"/><stop stop-color="#7E73CB" offset="30%"/><stop stop-color="#7A60C3" offset="40%"/><stop stop-color="#7753BE" offset="53%"/><stop stop-color="#764BBB" offset="69%"/><stop stop-color="#7549BA" offset="100%"/></linearGradient><linearGradient x1="-5.011%" y1="16.694%" x2="168.64%" y2="120.747%" id="C"><stop stop-color="#97E0F6" offset="0%"/><stop stop-color="#93CDEE" offset="4%"/><stop stop-color="#8BAAE0" offset="12%"/><stop stop-color="#848CD4" offset="20%"/><stop stop-color="#7E73CB" offset="30%"/><stop stop-color="#7A60C3" offset="40%"/><stop stop-color="#7753BE" offset="53%"/><stop stop-color="#764BBB" offset="69%"/><stop stop-color="#7549BA" offset="100%"/></linearGradient><linearGradient x1="-4.558%" y1="15.308%" x2="166.458%" y2="123.806%" id="D"><stop stop-color="#97E0F6" offset="0%"/><stop stop-color="#93CDEE" offset="4%"/><stop stop-color="#8BAAE0" offset="12%"/><stop stop-color="#848CD4" offset="20%"/><stop stop-color="#7E73CB" offset="30%"/><stop stop-color="#7A60C3" offset="40%"/><stop stop-color="#7753BE" offset="53%"/><stop stop-color="#764BBB" offset="69%"/><stop stop-color="#7549BA" offset="100%"/></linearGradient><linearGradient x1="-3.423%" y1="11.976%" x2="166.09%" y2="131.258%" id="E"><stop stop-color="#97E0F6" offset="0%"/><stop stop-color="#93CDEE" offset="4%"/><stop stop-color="#8BAAE0" offset="12%"/><stop stop-color="#848CD4" offset="20%"/><stop stop-color="#7E73CB" offset="30%"/><stop stop-color="#7A60C3" offset="40%"/><stop stop-color="#7753BE" offset="53%"/><stop stop-color="#764BBB" offset="69%"/><stop stop-color="#7549BA" offset="100%"/></linearGradient><linearGradient x1="-56.009%" y1="43.306%" x2="252.582%" y2="62.867%" id="F"><stop stop-color="#FFF" stop-opacity="0" offset="0%"/><stop stop-color="#FEFCFE" stop-opacity=".03" offset="1%"/><stop stop-color="#F9EAF6" stop-opacity=".23" offset="7%"/><stop stop-color="#F3D9EE" stop-opacity=".41" offset="14%"/><stop stop-color="#EFCAE8" stop-opacity=".57" offset="21%"/><stop stop-color="#EBBEE2" stop-opacity=".71" offset="29%"/><stop stop-color="#E8B4DE" stop-opacity=".81" offset="37%"/><stop stop-color="#E6ACDA" stop-opacity=".9" offset="47%"/><stop stop-color="#E4A7D8" stop-opacity=".96" offset="58%"/><stop stop-color="#E3A4D6" stop-opacity=".99" offset="72%"/><stop stop-color="#E3A3D6" offset="100%"/></linearGradient><linearGradient x1="-55.969%" y1="43.228%" x2="252.622%" y2="62.799%" id="G"><stop stop-color="#FFF" stop-opacity="0" offset="0%"/><stop stop-color="#FEFCFD" stop-opacity=".07" offset="2%"/><stop stop-color="#FAF5F9" stop-opacity=".26" offset="8%"/><stop stop-color="#F8EFF6" stop-opacity=".44" offset="14%"/><stop stop-color="#F5E9F3" stop-opacity=".59" offset="21%"/><stop stop-color="#F3E4F0" stop-opacity=".72" offset="28%"/><stop stop-color="#F1E1EE" stop-opacity=".82" offset="36%"/><stop stop-color="#F0DEEC" stop-opacity=".9" offset="45%"/><stop stop-color="#EFDCEB" stop-opacity=".96" offset="56%"/><stop stop-color="#EEDAEA" stop-opacity=".99" offset="69%"/><stop stop-color="#EEDAEA" offset="95%"/></linearGradient><linearGradient x1="-38.282%" y1="-2.78%" x2="247.911%" y2="168.767%" id="H"><stop stop-color="#FFF" offset="0%"/><stop stop-color="#FFFEFE" offset="0%"/><stop stop-color="#FBDADA" offset="2%"/><stop stop-color="#F8BBBB" offset="3%"/><stop stop-color="#F69FA0" offset="5%"/><stop stop-color="#F4898A" offset="7%"/><stop stop-color="#F27879" offset="10%"/><stop stop-color="#F16D6E" offset="13%"/><stop stop-color="#F06667" offset="17%"/><stop stop-color="#F06465" offset="29%"/><stop stop-color="#F3BF4F" offset="100%"/></linearGradient><linearGradient x1="-55.98%" y1="43.297%" x2="252.946%" y2="62.864%" id="I"><stop stop-color="#FFF" stop-opacity="0" offset="0%"/><stop stop-color="#FEFCFE" stop-opacity=".03" offset="1%"/><stop stop-color="#F9EAF6" stop-opacity=".23" offset="7%"/><stop stop-color="#F3D9EE" stop-opacity=".41" offset="14%"/><stop stop-color="#EFCAE8" stop-opacity=".57" offset="21%"/><stop stop-color="#EBBEE2" stop-opacity=".71" offset="29%"/><stop stop-color="#E8B4DE" stop-opacity=".81" offset="37%"/><stop stop-color="#E6ACDA" stop-opacity=".9" offset="47%"/><stop stop-color="#E4A7D8" stop-opacity=".96" offset="58%"/><stop stop-color="#E3A4D6" stop-opacity=".99" offset="72%"/><stop stop-color="#E3A3D6" offset="100%"/></linearGradient><linearGradient x1="-55.967%" y1="43.268%" x2="252.316%" y2="62.835%" id="J"><stop stop-color="#FFF" stop-opacity="0" offset="0%"/><stop stop-color="#FEFCFD" stop-opacity=".07" offset="2%"/><stop stop-color="#FAF5F9" stop-opacity=".26" offset="8%"/><stop stop-color="#F8EFF6" stop-opacity=".44" offset="14%"/><stop stop-color="#F5E9F3" stop-opacity=".59" offset="21%"/><stop stop-color="#F3E4F0" stop-opacity=".72" offset="28%"/><stop stop-color="#F1E1EE" stop-opacity=".82" offset="36%"/><stop stop-color="#F0DEEC" stop-opacity=".9" offset="45%"/><stop stop-color="#EFDCEB" stop-opacity=".96" offset="56%"/><stop stop-color="#EEDAEA" stop-opacity=".99" offset="69%"/><stop stop-color="#EEDAEA" offset="95%"/></linearGradient><linearGradient x1="-31.364%" y1="13.724%" x2="89.661%" y2="83.427%" id="K"><stop stop-color="#97E0F6" offset="0%"/><stop stop-color="#93CDEE" offset="4%"/><stop stop-color="#8BAAE0" offset="12%"/><stop stop-color="#848CD4" offset="20%"/><stop stop-color="#7E73CB" offset="30%"/><stop stop-color="#7A60C3" offset="40%"/><stop stop-color="#7753BE" offset="53%"/><stop stop-color="#764BBB" offset="69%"/><stop stop-color="#7549BA" offset="100%"/></linearGradient><linearGradient x1="4.987%" y1="36.099%" x2="153.243%" y2="71.806%" id="L"><stop stop-color="#97E0F6" offset="0%"/><stop stop-color="#93CDEE" offset="4%"/><stop stop-color="#8BAAE0" offset="12%"/><stop stop-color="#848CD4" offset="20%"/><stop stop-color="#7E73CB" offset="30%"/><stop stop-color="#7A60C3" offset="40%"/><stop stop-color="#7753BE" offset="53%"/><stop stop-color="#764BBB" offset="69%"/><stop stop-color="#7549BA" offset="100%"/></linearGradient></defs><g fill="none" fill-rule="evenodd"><path d="M308.671 83.729L164.414 1.24a8.104 8.104 0 0 0-8.135 0L12.75 85.431c-13.964 8.517-18.579 27.375.121 38.933l137.336 78.351c6.922 3.893 15.3 3.893 22.1-.122l136.364-79.932c25.379-16.425 10.322-33.336 0-38.932z" fill="url(#a)" transform="translate(499)"/><path d="M308.793 98.936l-143.286 84.07a8.104 8.104 0 0 1-8.136 0l-142.678-82.61C7.529 96.016 5.1 94.07 4.614 93.583h-.121c-6.436 9.49-5.586 22.021 8.5 30.781l136.85 78.108c7.164 4.136 16.028 4.015 23.193-.122l135.757-79.69c17.85-11.557 15.3-22.872 10.2-29.928h-.122c-.85.608-6.314 3.771-10.078 6.204z" fill="url(#b)" transform="translate(499)"/><path d="M95.2 93.34c19.793-12.896 64.114-39.906 78.686-48.665 2.307-1.339 5.221-.609 6.678 1.581.122.122.243.365.243.487l30.843 67.158c1.093 2.433 0 5.353-2.429 6.448-.85.365-1.821.487-2.792.365L97.02 102.221c-2.671-.365-4.492-2.92-4.007-5.596.243-1.217.972-2.433 2.186-3.285z" fill="url(#c)" transform="translate(499)"/><path d="M92.771 75.942c19.793-12.896 64.236-39.905 78.686-48.665 2.307-1.338 5.222-.608 6.679 1.703.121.122.121.365.243.487l30.842 67.158c1.093 2.433.122 5.353-2.428 6.448-.85.365-1.943.487-2.914.365L94.593 84.945c-2.672-.365-4.493-2.92-4.007-5.596a5.126 5.126 0 0 1 2.185-3.407z" fill="url(#d)" transform="translate(499)"/><path fill="url(#e)" d="M106.857 171.624l30.114 15.459 105.522-61.103-29.386-16.31z" transform="translate(512 189)"/><path d="M135.636 126.467c-.365.973 1.335 60.738 1.335 60.738L242.493 126.1l-1.336-60.738-105.521 61.104z" fill="url(#f)" transform="translate(512 189)"/><path d="M308.671 146.307L164.414 63.78a8.1 8.1 0 0 0-8.135 0L12.75 148.011c-13.964 8.52-18.579 27.387.121 38.95l137.336 78.387c6.922 3.895 15.3 3.895 22.222-.121l136.364-79.97c25.257-16.554 10.2-33.351-.122-38.95z" fill="url(#g)" transform="translate(512 189)"/><path d="M308.671 161.522L165.386 245.63a8.1 8.1 0 0 1-8.136 0L14.571 163.104c-7.164-4.382-9.592-6.33-10.078-6.816H4.37c-6.435 9.616-5.585 22.031 8.5 30.795l136.85 78.144c7.165 4.138 16.029 4.016 23.193-.122l135.757-79.726c17.85-11.564 15.3-22.884 10.2-29.943h-.121c-.729.365-6.193 3.651-10.079 6.086z" fill="url(#h)" transform="translate(512 189)"/><path fill="url(#i)" d="M105.643 116.607l28.414 14.607 99.814-57.817-27.685-15.459z" transform="translate(512 189)"/><path fill="url(#j)" d="M105.643 116.607l.607 57.33 27.686 14.12v-57.452z" transform="translate(512 189)"/><path fill="url(#k)" d="M131.871 105.896l28.415 13.51 99.814-56.72-27.686-15.459z" transform="translate(512 189)"/><path fill="url(#l)" d="M131.871 105.896l.608 81.552 28.05 14.241-.243-82.282z" transform="translate(512 189)"/><path fill="url(#m)" d="M160.043 57.208l28.414 14.606 99.814-57.816L260.221 0z" transform="translate(512 189)"/><path d="M188.457 71.814c-.243.853 1.214 144.603 1.214 144.603l99.936-57.817-1.214-144.602-99.936 57.816z" fill="url(#n)" transform="translate(512 189)"/><path fill="url(#o)" d="M160.043 57.208l.486 144.481 29.142 14.728-1.214-144.603z" transform="translate(512 189)"/><g><path d="M4.863 201.23l132.145 74.984c5.349 3.028 11.914 3.028 17.141-.121l131.173-76.559c4.011-2.301 5.349-7.51 3.039-11.386a9.067 9.067 0 0 0-3.04-3.029l-136.764-77.77a7.704 7.704 0 0 0-7.902 0L4.62 186.815c-4.012 2.302-5.35 7.39-3.04 11.387.973 1.332 1.945 2.302 3.283 3.028z" fill="url(#p)" transform="translate(294 295)"/><path d="M4.863 190.57l133.968 75.953c4.255 2.423 9.483 2.423 13.616-.121l132.996-77.528c4.012-2.301 5.35-7.51 3.04-11.386a9.067 9.067 0 0 0-3.04-3.029L148.678 96.69a7.704 7.704 0 0 0-7.902 0L4.741 176.034c-4.012 2.302-5.349 7.39-3.039 11.387a7.895 7.895 0 0 0 3.16 3.15z" fill="url(#q)" transform="translate(294 295)"/><path d="M58.475 186.694l97.376 54.148c3.282-1.938 62.365-35.856 62.365-35.856l-99.079-54.996-60.662 36.704z" fill="url(#r)" transform="translate(294 295)"/><path d="M53.369 91.602l4.011 93.154c0 .727.487 1.453 1.095 1.817l96.282 53.784c1.094.606 2.431.243 3.04-.848.242-.363.242-.726.242-1.09l-2.31-94.002c0-1.332-.85-2.665-2.066-3.27L56.529 89.664c-1.094-.606-2.31-.122-2.917.848-.243.363-.365.726-.243 1.09z" fill="url(#s)" transform="translate(294 295)"/><path d="M53.369 91.602l4.011 93.154c0 .727.487 1.453 1.095 1.817l96.282 53.784c1.094.606 2.431.243 3.04-.848.242-.363.242-.726.242-1.09l-2.31-94.002c0-1.332-.85-2.665-2.066-3.27L56.529 89.664c-1.094-.606-2.31-.122-2.917.848-.243.363-.365.726-.243 1.09z" fill="url(#s)" transform="translate(294 295)"/><path d="M155.73 144.417c0-1.332-.852-2.665-2.067-3.27L56.529 89.664c-1.094-.606-2.31-.122-2.917.848-.122.363-.243.726-.243 1.09v.12l95.431 50.515c1.216.606 2.067 1.938 2.067 3.27l2.31 93.881 1.58.97c1.094.605 2.431.242 3.04-.849.242-.363.242-.726.242-1.09l-2.31-94.002z" fill="url(#t)" transform="translate(294 295)"/><path d="M102.118 116.556s11.913-68.927 76.831-83.22c30.027-6.542 61.027 0 68.565 1.816.85.242 1.58-.363 1.823-1.09v-.242l2.432-32.344c.121-.848.85-1.453 1.58-1.332.486 0 .851.242 1.094.605l54.828 80.314c.486.727.243 1.696-.365 2.18l-67.835 45.911c-.73.485-1.58.242-2.067-.363-.243-.243-.243-.606-.243-.97l2.431-38.763c0-.606-.243-1.211-.85-1.454-16.17-8.116-34.04-12.477-52.154-12.598-27.596-.121-62.364 10.176-82.302 50.272-.85 1.696-2.674 4.24-3.768 3.634-2.189-1.333 0-12.356 0-12.356z" fill="url(#u)" transform="translate(294 295)"/></g><g><path d="M16.265 339.347l163.136 97.685c4.127 2.43 9.225 2.552 13.352.243l347.756-193.79c3.641-2.066 4.855-6.562 2.913-10.207-.728-1.215-1.7-2.308-3.034-2.916L363.9 136.686c-2.185-1.215-4.977-1.215-7.162.122L16.508 326.347c-3.642 2.065-4.855 6.56-2.913 10.206.607 1.214 1.578 2.065 2.67 2.794z" fill="url(#v)" transform="translate(0 35)"/><path d="M16.265 327.44l162.529 97.32c4.491 2.674 10.075 2.795 14.566.244l347.149-193.548c3.641-2.066 4.855-6.561 2.913-10.206-.728-1.215-1.7-2.309-3.034-2.916L363.9 124.658c-2.185-1.215-4.977-1.215-7.162.122L16.508 314.56c-3.642 2.066-4.855 6.561-2.913 10.206a7.056 7.056 0 0 0 2.67 2.673z" fill="url(#w)" transform="translate(0 35)"/><path fill="url(#x)" d="M232.444 333.272l61.905 34.749L403.227 308l-148.934-76.302z" transform="translate(0 35)"/><path d="M115.919 302.784l178.43 100.237c1.942 1.093 4.49.364 5.583-1.701.364-.608.486-1.337.486-1.944l-6.676-274.102a3.98 3.98 0 0 0-2.428-3.645l-182.8-85.414c-2.063-.972-4.49-.122-5.462 1.944a5.041 5.041 0 0 0-.364 1.944l11.167 259.279c0 1.458.85 2.673 2.064 3.402z" fill="#503E87"/><path d="M293.742 125.274a3.98 3.98 0 0 0-2.428-3.645l-182.8-85.414c-2.063-.972-4.49-.122-5.462 1.944a5.041 5.041 0 0 0-.364 1.944l.122 2.673 180.372 84.199a3.98 3.98 0 0 1 2.427 3.645l6.676 271.186 2.185 1.215c1.942 1.093 4.491.364 5.583-1.701.365-.608.486-1.337.486-1.944l-6.797-274.102z" fill="#331E5A"/><path d="M109.486 8.748c-2.185-1.094-4.856-.122-5.948 2.187-.364.607-.486 1.336-.364 2.065 1.7 35.114 5.947 184.436-37.264 219.063-19.543 15.674-51.587 21.627-63.968 23.45-.971.121-1.578 1.093-1.456 1.944.12.486.364.972.85 1.215l155.003 87.965c.728.364 1.577.607 2.427.607 8.74-.607 58.384-4.738 81.932-24.056 39.935-32.805 48.553-82.377 48.553-111.901v-.73l-3.763-115.302c-.122-2.673-1.7-5.103-4.127-6.196L109.486 8.748z" fill="url(#y)" transform="translate(0 35)"/><path d="M285.973 109.714l-.485-14.823c-.122-2.673-1.7-5.103-4.127-6.197L109.364 8.748c-3.034-1.458-6.676-3.159-6.676-.85 0 2.915.728 11.177.85 15.673l182.435 86.143z" fill="url(#z)" transform="translate(0 35)"/><path d="M267.16 125.873L117.253 54.675c-.243-.122-.486 0-.607.243v9.477c0 .243.121.364.243.486l149.784 70.833c.242.122.485 0 .607-.243v-9.112c.121-.243 0-.364-.122-.486z" fill="url(#A)" transform="translate(0 35)"/><path d="M267.16 154.547L117.374 83.348c-.242-.121-.485 0-.607.243v9.599c0 .243.122.364.243.486l149.784 70.834c.243.121.486 0 .607-.243v-9.113c0-.364-.121-.486-.243-.607z" fill="url(#B)" transform="translate(0 35)"/><path d="M168.84 135.714l-51.586-24.542c-.243-.122-.486 0-.607.243v9.598c0 .243.121.365.243.486l51.708 24.421.243-10.206z" fill="url(#C)" transform="translate(0 35)"/><path d="M177.823 170.585l-62.754-29.889c-.243-.122-.485 0-.607.243v9.598c0 .122.122.365.243.486l62.511 29.525.607-9.963z" fill="url(#D)" transform="translate(0 35)"/><path d="M212.902 215.296L111.67 166.211c-.242-.122-.485 0-.607.243v.243l-.12 9.355c0 .243.12.365.242.486l102.93 49.693-.363-9.355c0-.73-.364-1.337-.85-1.58z" fill="url(#E)" transform="translate(0 35)"/><path d="M458.334 306.429s-2.185-39.123-12.745-43.132c-12.017-4.617-22.455 26.73-33.137 24.786-13.109-2.309-6.676-75.33-22.213-80.068-17.843-5.59-27.432 49.936-40.54 43.86-10.56-4.86-4.735-44.225-19.3-48.356" stroke="#FFF"/><path d="M444.254 257.95c-2.428-1.336-4.491 0-4.491 3.038.121 3.16 1.82 6.197 4.49 7.898 2.429 1.336 4.492 0 4.492-3.038-.121-3.159-1.82-6.196-4.491-7.897zM390.24 200.968c-2.428-1.337-4.492 0-4.492 3.037.122 3.16 1.821 6.197 4.491 7.898 2.428 1.336 4.492 0 4.492-3.038-.122-3.28-1.7-6.196-4.492-7.897z" fill="#FFF"/></g><g><path d="M51.45 5.856C26.215-7.564 6.002 5.002 6.615 33.794c.612 28.792 21.315 63.44 45.938 77.104 24.622 13.664 44.835 1.098 44.835-27.938 0-29.036-20.703-63.684-45.938-77.104z" fill="url(#F)" transform="translate(221 142)"/><path d="M45.08 11.346C19.845-2.074-.367 10.492.245 39.284c.613 28.792 21.315 63.44 45.938 77.104 24.622 13.664 44.834 1.098 44.834-27.938 0-29.036-20.58-63.684-45.937-77.104z" fill="url(#G)" transform="translate(221 142)"/><path fill="url(#H)" d="M85.382 66.368l-23.397-8.662-8.697-34.648L40.18 51.972 16.17 48.19l18.252 20.374-8.574 20.13L49 82.716l19.968 21.472-3.308-29.646z" transform="translate(221 142)"/></g><g><path d="M32.027 3.789C16.39-4.644 3.782 3.3 4.146 21.389 4.51 39.478 17.359 61.356 32.634 69.91c15.274 8.556 27.881.733 27.881-17.6 0-18.333-12.728-40.089-28.488-48.522z" fill="url(#I)" transform="translate(412 420)"/><path d="M28.148 7.211C12.39-1.222-.097 6.722.267 24.811.63 42.9 13.48 64.778 28.876 73.333c15.395 8.556 27.881.734 27.881-17.6 0-18.333-12.97-40.089-28.609-48.522z" fill="url(#J)" transform="translate(412 420)"/><path d="M23.42 18.333c.97 5.378.243 10.878-1.818 16.011-2.424 5.5-1.212 14.423-.606 15.89 2.06 4.766 19.517 11.122 21.578 7.455 1.697-2.933-1.212-4.645.364-5.745 1.818-1.344 2.667-3.3 1.333-6.11-.606-1.223-.485-2.078.364-3.79 1.454-2.81-.849-5.01-4.486-6.11-5.697-1.834-12.486-3.667-12.486-3.667.364-1.345.849-2.69 1.455-3.911 1.455-2.812.97-6.967.121-9.29-1.576-5.01-6.303-4.888-5.818-.733z" fill="url(#K)" transform="translate(412 420)"/><path d="M21.117 33.611s-.848 1.345-1.454 6.722a28.937 28.937 0 0 0 0 6.478c0 .611-.485 1.345-1.213 1.222l-1.818-.366c-.606-.123-.849-.49-.97-1.223-.364-2.2-.485-4.277-.242-6.477.485-4.767 1.454-5.99 1.454-5.99.243-.488.607-.977 1.091-.977l1.819-.244c1.09 0 1.333.366 1.333.855z" fill="url(#L)" transform="translate(412 420)"/></g></g></svg>